<?xml version="1.0" encoding="UTF-8"?><svg id="a" xmlns="http://www.w3.org/2000/svg" viewBox="0 0 113.65 248.91"><polygon points="38.6 67.48 29.75 70.61 81.53 248.91 109.53 238.99 38.6 67.48" style="fill:#fff;"/><polygon points="84.42 71.52 75.6 68.3 1.91 238.71 29.81 248.91 84.42 71.52" style="fill:#fff;"/><ellipse cx="90.26" cy="40.29" rx="41.53" ry="19.74" transform="translate(21.43 111.23) rotate(-69.92)" style="fill:#fff;"/><path d="M41.81,33.1c-4.25-12.01-10.63-21.84-17.22-27.59l12.7,35.86-6.34,2.25L15.64.39C14.42.08,13.22-.05,12.06.02l15.82,44.69-6.34,2.25L5.87,2.68c-1.02.95-1.91,2.12-2.67,3.5l.16-.06,14.88,42.01-6.34,2.25L.18,17.32c-.72,8.17.68,18.43,4.41,28.96,7.66,21.62,22.19,36.19,32.47,32.55,10.28-3.64,12.4-24.12,4.75-45.73Z" style="fill:#fff;"/></svg>