<?xml version="1.0" encoding="UTF-8"?><svg id="a" xmlns="http://www.w3.org/2000/svg" xmlns:xlink="http://www.w3.org/1999/xlink" viewBox="0 0 177.73 169.48"><defs><linearGradient id="b" x1="45.31" y1="84.49" x2="45.31" y2="259.03" gradientUnits="userSpaceOnUse"><stop offset="0" stop-color="#fdfce5"/><stop offset=".44" stop-color="#e69d24"/></linearGradient></defs><path d="M92.75,3.32l18.06,55.6c.55,1.68,2.11,2.82,3.88,2.82h58.46c3.95,0,5.59,5.06,2.4,7.38l-47.29,34.36c-1.43,1.04-2.03,2.88-1.48,4.56l18.06,55.6c1.22,3.76-3.08,6.88-6.28,4.56l-47.29-34.36c-1.43-1.04-3.37-1.04-4.79,0l-47.29,34.36c-3.2,2.32-7.5-.8-6.28-4.56l18.06-55.6c.55-1.68-.05-3.52-1.48-4.56L2.19,69.11c-3.2-2.32-1.55-7.38,2.4-7.38h58.46c1.77,0,3.33-1.14,3.88-2.82L84.99,3.32c1.22-3.76,6.54-3.76,7.76,0Z" style="fill:none; stroke:#fde966; stroke-miterlimit:10;"/><path d="M88.7,3.76c0-.77.06-1.53.15-2.27-1.3,0-2.6.76-3.09,2.25l-18.32,56.4c-.44,1.34-1.69,2.25-3.1,2.25H5.04c-3.16,0-4.48,4.04-1.92,5.9l47.97,34.86c1.14.83,1.62,2.3,1.19,3.65l-18.32,56.4c-.98,3.01,2.46,5.51,5.02,3.65l47.97-34.86c.53-.38,1.14-.58,1.75-.61V3.76Z" style="fill:url(#b);"/></svg>