<?xml version="1.0" encoding="UTF-8"?><svg id="a" xmlns="http://www.w3.org/2000/svg" viewBox="0 0 181.73 173.48"><path d="M94.75,5.32l18.06,55.6c.55,1.68,2.11,2.82,3.88,2.82h58.46c3.95,0,5.59,5.06,2.4,7.38l-47.29,34.36c-1.43,1.04-2.03,2.88-1.48,4.56l18.06,55.6c1.22,3.76-3.08,6.88-6.28,4.56l-47.29-34.36c-1.43-1.04-3.37-1.04-4.79,0l-47.29,34.36c-3.2,2.32-7.5-.8-6.28-4.56l18.06-55.6c.55-1.68-.05-3.52-1.48-4.56L4.19,71.11c-3.2-2.32-1.55-7.38,2.4-7.38h58.46c1.77,0,3.33-1.14,3.88-2.82L86.99,5.32c1.22-3.76,6.54-3.76,7.76,0Z" style="fill:none; stroke:#fff; stroke-miterlimit:10; stroke-width:5px;"/></svg>